<svg width="6348" height="2963" viewBox="0 0 6348 2963" fill="none" xmlns="http://www.w3.org/2000/svg">
<path d="M86.0443 534.058H0V0.264648H121.896L243.792 293.453L290.798 420.926H297.172L343.381 293.453L462.887 0.264648H584.783V534.058H499.535V218.562L502.722 129.331H497.145L463.683 218.562L344.177 502.19H240.605L120.303 218.562L88.4345 129.331H81.2641L86.0443 218.562V534.058Z" fill="white"/>
<path d="M779.739 542.025C708.833 542.025 653.86 505.377 653.86 436.063C653.86 370.733 701.662 336.475 786.113 324.524L924.74 303.81V282.299C924.74 223.343 897.652 205.815 835.509 205.815C772.569 205.815 747.871 225.733 747.871 278.315V290.266H665.014V282.299C665.014 193.864 734.327 130.128 840.289 130.128C951.031 130.128 1006.8 197.051 1006.8 293.453V534.058H927.13V471.915H923.147C900.042 509.36 854.63 542.025 779.739 542.025ZM737.514 429.69C737.514 460.761 757.432 473.508 807.624 473.508C863.394 473.508 924.74 451.201 924.74 371.53V364.36L798.86 383.481C753.448 389.854 737.514 400.211 737.514 429.69Z" fill="white"/>
<path d="M1246.18 542.025C1133.05 542.025 1071.7 461.558 1071.7 335.678C1071.7 210.595 1132.25 130.128 1241.4 130.128C1311.51 130.128 1353.74 163.59 1371.26 199.441H1373.65V0.264648H1458.9V534.058H1380.03V468.728H1376.84C1357.72 514.141 1313.9 542.025 1246.18 542.025ZM1157.75 335.678C1157.75 433.673 1188.82 468.728 1265.3 468.728C1335.41 468.728 1373.65 437.657 1373.65 371.53V300.623C1373.65 234.496 1335.41 203.425 1265.3 203.425C1189.61 203.425 1157.75 238.48 1157.75 335.678Z" fill="white"/>
<path d="M1716.52 542.025C1585.86 542.025 1524.52 459.168 1524.52 335.678C1524.52 212.985 1597.81 130.128 1715.73 130.128C1822.49 130.128 1897.38 193.864 1897.38 302.217C1897.38 322.931 1894.99 344.442 1892.6 356.393H1604.98C1608.17 428.893 1634.46 465.541 1717.32 465.541C1783.45 465.541 1808.94 443.234 1808.94 407.382V401.008H1894.19V408.179C1894.19 489.443 1823.28 542.025 1716.52 542.025ZM1714.13 202.628C1639.24 202.628 1610.56 237.683 1605.78 299.03H1815.32C1818.5 231.31 1781.85 202.628 1714.13 202.628Z" fill="white"/>
<path d="M2296.96 534.058H2184.62L2086.62 138.095H2179.84L2225.25 357.986L2241.19 462.355H2247.56L2273.85 357.986L2343.16 138.095H2454.7L2524.81 358.783L2549.51 462.355H2555.89L2571.82 358.783L2618.03 138.095H2707.26L2609.26 534.058H2497.73L2426.82 313.37L2400.53 213.782H2394.15L2368.66 313.37L2296.96 534.058Z" fill="white"/>
<path d="M2829.21 87.9024H2743.96L2743.16 0.264648H2829.21V87.9024ZM2830 534.058H2743.96V135.705H2830V534.058Z" fill="white"/>
<path d="M3071.62 534.058C2983.18 534.058 2936.97 501.393 2936.97 412.162V209.799H2870.85V138.095H2938.57L2956.89 40.1H3023.02V138.095H3142.52V209.799H3023.02V408.179C3023.02 449.607 3040.54 456.778 3093.92 456.778H3142.52V526.888C3125.79 530.871 3098.7 534.058 3071.62 534.058Z" fill="white"/>
<path d="M3289.93 534.058H3203.89V0.264648H3289.93V204.222H3293.12C3311.44 168.37 3353.67 130.128 3425.37 130.128C3528.94 130.128 3572.76 197.848 3572.76 284.689V534.058H3486.72V304.607C3486.72 233.7 3464.41 204.222 3391.91 204.222C3321.8 204.222 3289.93 231.31 3289.93 306.2V534.058Z" fill="white"/>
<path fill-rule="evenodd" clip-rule="evenodd" d="M0 1208C0 1036.98 138.639 898.345 309.658 898.345H6038.34C6209.36 898.345 6348 1036.98 6348 1208V2653.08C6348 2824.1 6209.36 2962.73 6038.34 2962.73H309.659C138.639 2962.73 0 2824.1 0 2653.08V1208ZM714.529 2433.49C427.24 2433.49 258.318 2265.81 258.318 2008.11C258.318 1750.41 427.24 1582.72 714.529 1582.72C991.955 1582.72 1158.41 1714.65 1158.41 1935.36V1956.32H899.481V1935.36C899.481 1841.65 855.091 1804.66 718.228 1804.66C550.54 1804.66 504.919 1844.12 504.919 2008.11C504.919 2172.1 550.54 2211.56 718.228 2211.56C855.091 2211.56 899.481 2174.56 899.481 2080.85V2059.9H1158.41V2080.85C1158.41 2301.56 991.955 2433.49 714.529 2433.49ZM1420.46 2433.49C1279.9 2433.49 1200.99 2369.38 1200.99 2263.34C1200.99 2175.8 1261.4 2112.91 1401.96 2099.35L1654.73 2074.69V2062.36C1654.73 1999.48 1627.61 1989.61 1545 1989.61C1468.55 1989.61 1445.12 2004.41 1445.12 2056.2V2061.13H1213.31V2058.66C1213.31 1893.44 1351.41 1787.4 1562.26 1787.4C1779.27 1787.4 1884.07 1893.44 1884.07 2067.29V2421.16H1667.06V2290.47H1654.73C1631.3 2378.01 1554.86 2433.49 1420.46 2433.49ZM1434.02 2248.54C1434.02 2268.27 1453.75 2271.97 1489.51 2271.97C1601.71 2271.97 1647.33 2258.41 1653.5 2202.92L1463.62 2225.12C1442.65 2227.58 1434.02 2234.98 1434.02 2248.54ZM2184.58 2630.77H1952.78V1799.73H2169.79V1967.42H2182.12C2201.85 1844.12 2275.83 1787.4 2421.32 1787.4C2611.21 1787.4 2716.01 1909.47 2716.01 2110.45C2716.01 2312.66 2613.67 2433.49 2431.19 2433.49C2284.46 2433.49 2215.41 2364.44 2196.91 2260.87H2184.58V2630.77ZM2184.58 2117.84C2184.58 2205.39 2233.9 2222.65 2337.48 2222.65C2444.75 2222.65 2481.74 2193.06 2481.74 2110.45C2481.74 2027.84 2444.75 1999.48 2337.48 1999.48C2233.9 1999.48 2184.58 2019.21 2184.58 2109.21V2117.84ZM3111.73 2433.49C2892.26 2433.49 2775.12 2348.41 2775.12 2205.39V2200.45H3006.93V2212.78C3006.93 2247.31 3029.13 2251.01 3112.97 2251.01C3193.11 2251.01 3205.44 2242.38 3205.44 2221.42C3205.44 2201.69 3195.58 2196.76 3137.63 2190.59L2957.61 2170.87C2829.38 2157.3 2760.33 2096.88 2760.33 1992.08C2760.33 1882.34 2847.87 1787.4 3080.91 1787.4C3296.69 1787.4 3411.35 1865.08 3411.35 2017.97V2022.9H3179.55V2015.51C3179.55 1983.45 3167.22 1968.65 3073.51 1968.65C2998.3 1968.65 2988.44 1978.52 2988.44 2001.94C2988.44 2019.21 2998.3 2027.84 3071.04 2035.24L3194.34 2048.8C3375.6 2068.52 3433.55 2128.94 3433.55 2233.75C3433.55 2349.65 3317.65 2433.49 3111.73 2433.49ZM4456.2 1513.01L4455.95 1513.06C4442.33 1515.62 4424.99 1519.67 4408.09 1525.74C4391.07 1531.85 4375.33 1539.71 4364.23 1549.46C4332.6 1577.8 4320.12 1621.42 4315.06 1650.89L4315.04 1651.04L4315.02 1651.12C4314.33 1654.7 4312.47 1658.02 4309.61 1660.47C4306.73 1662.94 4303.04 1664.35 4299.15 1664.35C4295.27 1664.35 4291.57 1662.94 4288.69 1660.47C4285.83 1658.02 4283.97 1654.7 4283.28 1651.12L4283.26 1651.04L4283.26 1651.01L4283.24 1650.93C4278.1 1621.67 4265.7 1578.03 4233.98 1549.45C4222.88 1539.71 4207.14 1531.85 4190.09 1525.74C4173.18 1519.67 4155.82 1515.62 4142.2 1513.06L4141.94 1513.01C4138.15 1512.21 4134.85 1510.08 4132.55 1507.15C4130.26 1504.21 4129.07 1500.62 4129.07 1497C4129.07 1493.4 4130.26 1489.79 4132.56 1486.85C4134.86 1483.92 4138.15 1481.8 4141.94 1481C4142 1480.99 4142.06 1480.98 4142.12 1480.97C4142.18 1480.96 4142.25 1480.94 4142.31 1480.93C4155.95 1478.5 4173.32 1474.5 4190.21 1468.45C4207.25 1462.33 4222.96 1454.42 4233.97 1444.57C4265.44 1416.47 4278.02 1369.71 4283.14 1337.69C4283.16 1337.53 4283.19 1337.38 4283.22 1337.23C4283.24 1337.11 4283.27 1337 4283.29 1336.88C4283.33 1336.72 4283.37 1336.56 4283.42 1336.39C4284.32 1333.06 4286.27 1330.03 4289.08 1327.81C4291.9 1325.58 4295.41 1324.33 4299.07 1324.33C4302.75 1324.33 4306.26 1325.6 4309.07 1327.81C4311.86 1330.01 4313.82 1333.04 4314.73 1336.39C4314.85 1336.82 4314.94 1337.25 4315.01 1337.69C4320.12 1369.64 4332.67 1416.1 4364.15 1444.55C4375.3 1454.27 4391.05 1462.1 4408.08 1468.21C4425 1474.28 4442.35 1478.36 4455.98 1480.96L4456.2 1481C4460 1481.8 4463.29 1483.93 4465.58 1486.85C4467.89 1489.78 4469.08 1493.38 4469.08 1497C4469.08 1500.64 4467.88 1504.22 4465.59 1507.15C4463.3 1510.08 4460.01 1512.21 4456.2 1513.01ZM4536.26 1340.44C4536.28 1340.44 4536.3 1340.43 4536.32 1340.43L4536.38 1340.42C4538.01 1340.08 4539.41 1339.16 4540.39 1337.91C4541.38 1336.65 4541.89 1335.12 4541.89 1333.56C4541.89 1332.01 4541.38 1330.47 4540.39 1329.21C4539.41 1327.96 4538.01 1327.04 4536.38 1326.7C4536.33 1326.7 4536.31 1326.69 4536.28 1326.68C4530.43 1325.57 4523 1323.82 4515.76 1321.22C4508.45 1318.6 4501.7 1315.24 4496.91 1311.08C4483.43 1298.89 4478.05 1278.98 4475.86 1265.28C4475.84 1265.17 4475.82 1265.06 4475.8 1264.95C4475.78 1264.87 4475.76 1264.8 4475.74 1264.73C4475.35 1263.29 4474.51 1261.99 4473.31 1261.05C4472.11 1260.1 4470.61 1259.56 4469.03 1259.56C4467.46 1259.56 4465.95 1260.1 4464.74 1261.05C4463.54 1262 4462.71 1263.3 4462.32 1264.73C4462.29 1264.84 4462.26 1264.96 4462.24 1265.08C4462.22 1265.14 4462.21 1265.21 4462.2 1265.28C4460.01 1279.01 4454.62 1299.05 4441.13 1311.09C4436.41 1315.31 4429.68 1318.7 4422.37 1321.32C4415.14 1323.92 4407.69 1325.63 4401.85 1326.67C4401.79 1326.68 4401.74 1326.69 4401.69 1326.7C4400.06 1327.04 4398.65 1327.95 4397.67 1329.21C4396.68 1330.47 4396.17 1332.01 4396.17 1333.56C4396.17 1335.11 4396.68 1336.65 4397.67 1337.91C4398.65 1339.17 4400.06 1340.08 4401.69 1340.42L4401.73 1340.43L4401.8 1340.44C4407.64 1341.54 4415.07 1343.28 4422.32 1345.88C4429.63 1348.5 4436.38 1351.86 4441.13 1356.04C4454.73 1368.29 4460.04 1386.99 4462.25 1399.53L4462.26 1399.61C4462.56 1401.14 4463.35 1402.57 4464.58 1403.62C4465.81 1404.68 4467.4 1405.28 4469.06 1405.28C4470.73 1405.28 4472.31 1404.68 4473.54 1403.62C4474.77 1402.57 4475.57 1401.14 4475.86 1399.61L4475.87 1399.58L4475.88 1399.51C4478.05 1386.88 4483.4 1368.19 4496.96 1356.04C4501.72 1351.86 4508.45 1348.5 4515.76 1345.88C4523 1343.28 4530.43 1341.54 4536.26 1340.44ZM3703.04 2402.07C3594.04 2402.07 3509.53 2344.51 3509.53 2233.06C3509.53 2137.53 3578.12 2078.74 3705.49 2059.14L3916.14 2027.3V2007.71C3916.14 1935.45 3876.95 1921.98 3804.69 1921.98C3729.99 1921.98 3700.59 1942.8 3700.59 2005.26V2018.73H3525.46V2005.26C3525.46 1858.29 3639.36 1761.54 3813.27 1761.54C3994.53 1761.54 4090.06 1860.74 4090.06 2024.85V2389.82H3919.82V2306.54H3912.47C3879.4 2351.85 3816.94 2402.07 3703.04 2402.07ZM3684.67 2218.36C3684.67 2251.43 3710.39 2262.45 3764.28 2262.45C3838.99 2262.45 3916.14 2242.85 3916.14 2147.33L3739.78 2174.27C3701.82 2180.39 3684.67 2192.64 3684.67 2218.36ZM4375.35 2389.82H4191.64V1773.78H4375.35V2389.82ZM4460.52 2389.82H4690.77V2173.04H4460.52V2389.82ZM5064.54 2402.07C4861.23 2402.07 4752.23 2278.37 4752.23 2083.64C4752.23 1886.46 4868.58 1761.54 5074.34 1761.54C5238.45 1761.54 5358.47 1861.96 5358.47 2013.83V2028.53H5174.76V2018.73C5174.76 1948.92 5135.57 1925.65 5059.64 1925.65C4971.46 1925.65 4933.49 1967.29 4933.49 2082.41C4933.49 2196.31 4971.46 2237.96 5059.64 2237.96C5135.57 2237.96 5174.76 2214.69 5174.76 2144.88V2135.08H5358.47V2149.77C5358.47 2301.64 5234.77 2402.07 5064.54 2402.07ZM5426.79 2082.41C5426.79 2277.15 5544.36 2402.07 5742.77 2402.07C5939.95 2402.07 6055.08 2277.15 6055.08 2082.41C6055.08 1886.46 5939.95 1761.54 5742.77 1761.54C5544.36 1761.54 5426.79 1886.46 5426.79 2082.41ZM5876.27 2082.41C5876.27 2201.21 5841.97 2240.4 5742.77 2240.4C5642.34 2240.4 5608.05 2201.21 5608.05 2082.41C5608.05 1962.39 5642.34 1923.2 5742.77 1923.2C5841.97 1923.2 5876.27 1962.39 5876.27 2082.41Z" fill="white"/>
</svg>
